<svg width="25" height="24" viewBox="0 0 25 24" fill="none" xmlns="http://www.w3.org/2000/svg">
<g clip-path="url(#clip0_928_21)">
<path d="M9.11865 19.0001C4.11865 20.5001 4.11865 16.5001 2.11865 16.0001M16.1187 22.0001V18.1301C16.1562 17.6532 16.0917 17.1739 15.9297 16.7239C15.7676 16.2738 15.5116 15.8635 15.1787 15.5201C18.3187 15.1701 21.6187 13.9801 21.6187 8.52006C21.6184 7.12389 21.0813 5.78126 20.1187 4.77006C20.5745 3.54857 20.5423 2.19841 20.0287 1.00006C20.0287 1.00006 18.8487 0.65006 16.1187 2.48006C13.8267 1.85888 11.4106 1.85888 9.11865 2.48006C6.38865 0.65006 5.20865 1.00006 5.20865 1.00006C4.69503 2.19841 4.6628 3.54857 5.11865 4.77006C4.14878 5.78876 3.61117 7.14352 3.61865 8.55006C3.61865 13.9701 6.91865 15.1601 10.0587 15.5501C9.72965 15.89 9.47592 16.2955 9.31396 16.74C9.15201 17.1845 9.08546 17.6581 9.11865 18.1301V22.0001" stroke="#DDDDDD" stroke-width="2" stroke-linecap="round" stroke-linejoin="round"/>
</g>
<defs>
<clipPath id="clip0_928_21">
<rect width="24" height="24" fill="white" transform="translate(0.118652)"/>
</clipPath>
</defs>
</svg>
