<svg width="21" height="20" viewBox="0 0 21 20" fill="none" xmlns="http://www.w3.org/2000/svg">
<path d="M19.7584 10.809C19.6011 12.5112 18.9623 14.1334 17.9167 15.4858C16.8711 16.8382 15.4619 17.8648 13.8541 18.4456C12.2464 19.0263 10.5064 19.1372 8.83795 18.7651C7.16946 18.3931 5.64144 17.5536 4.43267 16.3448C3.2239 15.136 2.38439 13.608 2.01235 11.9395C1.64032 10.2711 1.75116 8.53113 2.33191 6.92334C2.91265 5.31555 3.93928 3.90641 5.29166 2.8608C6.64404 1.81518 8.26624 1.17635 9.96845 1.01904C8.97186 2.36731 8.4923 4.02849 8.61698 5.70046C8.74166 7.37242 9.46231 8.9441 10.6478 10.1296C11.8334 11.3152 13.4051 12.0358 15.077 12.1605C16.749 12.2852 18.4102 11.8056 19.7584 10.809Z" stroke="#DDDDDD" stroke-width="2" stroke-linecap="round" stroke-linejoin="round"/>
</svg>
